<?xml version="1.0" standalone="no"?>
<!DOCTYPE svg PUBLIC "-//W3C//DTD SVG 20010904//EN"
 "http://www.w3.org/TR/2001/REC-SVG-20010904/DTD/svg10.dtd">
<svg version="1.0" xmlns="http://www.w3.org/2000/svg"
 width="960.000000pt" height="955.000000pt" viewBox="0 0 960.000000 955.000000"
 preserveAspectRatio="xMidYMid meet">

<g transform="translate(0.000000,955.000000) scale(0.100000,-0.100000)"
fill="#000000" stroke="none">
<path d="M2397 9543 c1322 -2 3484 -2 4805 0 1322 1 241 2 -2402 2 -2643 0
-3724 -1 -2403 -2z"/>
<path d="M5425 6443 c-16 -9 -50 -35 -75 -58 -25 -23 -72 -66 -105 -96 -130
-117 -314 -326 -424 -481 -14 -21 -29 -37 -33 -38 -3 0 -18 21 -34 48 -32 55
-64 98 -116 152 -20 22 -50 59 -66 82 -29 43 -136 142 -201 187 -18 13 -59 46
-90 73 -80 71 -171 128 -203 128 -22 0 -35 -12 -71 -62 -24 -35 -54 -85 -67
-113 -13 -27 -28 -57 -35 -65 -6 -8 -18 -31 -25 -50 -8 -19 -23 -51 -35 -70
-43 -71 -135 -338 -135 -392 0 -14 -3 -27 -6 -31 -5 -5 -88 51 -134 91 -96 85
-432 263 -537 285 -53 11 -55 11 -73 -13 -10 -14 -26 -50 -35 -80 -9 -30 -25
-84 -35 -120 -46 -151 -75 -330 -91 -560 -5 -85 -14 -159 -18 -163 -4 -4 -29
2 -56 13 -169 72 -487 143 -701 155 -91 5 -113 3 -123 -9 -8 -10 -14 -75 -18
-198 -7 -241 13 -434 63 -613 19 -71 42 -155 50 -185 8 -30 24 -71 34 -91 29
-54 26 -59 -30 -59 -101 0 -327 -31 -410 -56 -209 -64 -323 -119 -466 -222
-80 -58 -84 -63 -84 -99 0 -64 141 -323 264 -486 198 -262 475 -492 727 -602
162 -71 294 -110 439 -129 l45 -6 -30 20 c-16 11 -35 18 -42 15 -7 -2 -15 0
-19 6 -3 6 -13 8 -21 5 -9 -4 -25 4 -39 19 l-24 26 28 10 c15 6 43 8 62 5 105
-17 118 -17 124 -7 4 6 37 11 77 11 47 0 75 5 84 14 8 7 11 16 8 20 -4 3 -2 6
4 6 6 0 13 -7 17 -15 7 -21 35 -19 43 3 3 9 12 24 19 32 7 8 14 26 17 40 4 22
4 21 6 -6 2 -53 28 -111 65 -147 28 -28 47 -36 103 -45 101 -17 131 -6 262 99
61 49 115 89 120 89 5 0 14 7 22 16 7 8 29 24 48 34 20 10 68 48 108 84 39 36
76 66 82 66 7 0 11 -26 11 -67 0 -79 20 -121 72 -153 46 -28 86 -25 143 11 48
30 194 172 243 237 13 17 28 32 33 32 5 0 9 -22 9 -49 0 -37 5 -54 25 -75 21
-23 32 -26 87 -26 85 0 149 31 233 114 l67 65 -9 -42 c-24 -124 2 -198 84
-241 45 -23 55 -21 108 23 41 34 78 80 160 203 50 75 57 58 22 -48 -56 -163
-56 -249 -3 -307 32 -34 63 -41 117 -27 35 9 62 30 129 99 47 48 92 100 100
116 36 71 83 145 91 145 5 0 9 -22 9 -49 0 -103 70 -185 169 -198 50 -7 135
32 197 89 25 23 47 39 49 36 3 -2 -2 -40 -10 -83 -26 -133 10 -260 81 -290
107 -44 213 -1 445 181 111 88 191 171 328 342 46 57 85 102 87 99 2 -2 -2
-20 -10 -39 -27 -63 -66 -236 -66 -288 0 -76 22 -114 80 -139 60 -26 77 -26
139 -2 57 21 105 56 176 126 61 61 84 92 159 217 56 93 59 97 99 103 123 19
327 108 327 142 0 18 -1 18 -104 -24 -72 -29 -109 -37 -174 -41 -67 -4 -83 -2
-81 9 7 37 -16 120 -50 179 -65 115 -179 165 -249 109 -46 -36 -82 -100 -82
-146 l0 -43 -44 0 c-37 0 -46 -4 -51 -21 -4 -12 -51 -67 -104 -123 -53 -56
-117 -124 -142 -151 -65 -69 -191 -181 -247 -220 -107 -73 -293 -152 -331
-140 -10 3 -27 22 -36 42 -24 51 -15 127 34 274 48 142 65 177 174 356 18 29
46 76 63 105 18 29 54 82 80 117 27 34 65 85 85 113 34 46 62 79 218 251 l53
59 -7 112 c-7 130 -21 212 -41 244 -12 18 -24 22 -65 22 -95 0 -163 -53 -254
-195 -21 -33 -46 -71 -55 -85 -9 -14 -25 -46 -35 -72 -10 -27 -21 -48 -24 -48
-6 0 -32 -73 -45 -125 -5 -20 -33 -98 -100 -280 -21 -55 -42 -118 -48 -140
-14 -51 -28 -68 -28 -32 0 64 -72 163 -137 188 -62 23 -150 0 -221 -58 -63
-51 -155 -197 -183 -290 -23 -73 -25 -77 -158 -210 -75 -74 -146 -139 -158
-144 -73 -27 -80 42 -29 263 19 80 32 156 29 167 -12 45 -61 21 -206 -99 -49
-40 -90 -70 -93 -67 -15 15 96 182 175 265 66 69 67 74 16 121 -15 13 -47 51
-72 83 -25 32 -53 58 -61 58 -31 0 -106 -113 -152 -229 -62 -158 -243 -363
-342 -386 -63 -16 -90 77 -46 159 28 51 90 137 111 155 27 22 21 64 -13 89
-16 12 -36 22 -44 22 -8 0 -37 -30 -63 -66 -152 -207 -202 -266 -297 -343 -85
-69 -155 -111 -184 -111 -39 0 -42 -7 116 272 82 145 137 228 215 326 37 45
67 88 67 95 0 16 82 166 91 167 4 0 39 -19 79 -42 66 -38 78 -42 144 -42 64
-1 75 2 113 30 65 48 109 89 116 107 8 20 27 23 27 4 0 -14 45 -58 102 -100
49 -36 103 -35 209 2 46 16 87 27 91 25 4 -3 8 -13 8 -23 0 -10 7 -24 15 -31
8 -7 15 -18 15 -25 0 -23 86 -103 119 -110 17 -3 31 -10 31 -14 0 -4 20 -8 44
-8 38 -1 43 1 39 17 -6 22 -30 34 -39 19 -9 -15 -67 1 -82 22 -7 11 -20 19
-28 19 -19 0 -13 24 7 26 8 1 21 2 29 3 10 1 11 4 3 12 -6 6 -19 8 -29 5 -30
-9 -39 -6 -37 12 1 10 0 11 -3 5 -9 -21 -27 -15 -21 7 3 12 0 20 -8 20 -7 0
-18 13 -25 30 -10 24 -10 32 3 45 9 8 23 12 33 8 10 -3 22 0 28 8 6 8 20 19
31 25 11 6 21 21 23 33 2 12 14 26 28 31 13 5 24 17 24 26 0 9 6 14 13 11 20
-8 39 30 32 64 -4 18 -3 29 4 29 6 0 11 7 11 16 0 26 -35 11 -38 -16 -4 -26
-22 -53 -22 -32 0 7 -4 12 -10 12 -5 0 -10 -13 -10 -29 0 -17 -5 -33 -11 -36
-17 -11 -23 3 -12 28 9 18 6 25 -14 40 -24 18 -24 18 -18 -6 4 -14 2 -28 -5
-32 -16 -10 -19 -5 -24 39 -6 47 -22 68 -36 46 -5 -8 -7 -25 -4 -37 4 -15 0
-26 -15 -35 -12 -7 -21 -18 -21 -25 0 -7 -4 -13 -10 -13 -5 0 -10 -9 -10 -21
0 -11 -5 -30 -11 -41 -9 -16 -8 -23 3 -29 16 -9 19 -66 3 -61 -5 2 -10 12 -9
22 0 11 -5 20 -13 20 -7 0 -13 11 -13 23 0 13 -6 37 -14 53 -23 47 -29 234
-11 344 8 52 23 147 32 210 10 63 21 117 25 118 5 2 8 13 8 23 0 11 7 34 16
52 9 17 23 54 29 82 14 54 33 110 46 137 13 26 11 47 -6 64 -8 8 -12 21 -9 29
9 22 22 18 26 -7 3 -20 7 -18 33 22 17 25 33 47 38 48 4 2 7 10 7 18 0 8 5 14
10 14 6 0 10 7 10 16 0 8 14 29 30 46 17 16 30 34 30 39 0 11 10 25 63 81 20
22 37 44 37 47 0 4 13 20 30 36 l30 28 20 -26 c23 -29 43 -36 34 -12 -4 9 0
15 10 15 9 0 16 -7 16 -15 0 -8 9 -15 20 -15 16 0 19 -5 15 -22 -3 -13 -2 -43
3 -68 6 -37 11 -45 27 -42 14 2 24 -7 33 -27 15 -34 11 -97 -7 -94 -12 3 -14
-7 -5 -31 3 -9 9 -14 14 -11 4 2 16 -2 26 -10 18 -14 18 -14 -4 -15 -13 0 -21
-4 -17 -9 3 -5 0 -13 -5 -16 -8 -5 -6 -13 6 -26 13 -14 21 -16 35 -8 15 7 19
6 19 -5 0 -8 -4 -16 -9 -18 -5 -1 -7 -16 -4 -31 4 -21 8 -25 14 -15 6 9 9 7 9
-9 0 -13 5 -23 12 -23 6 0 8 -3 5 -6 -4 -4 -14 -1 -23 7 -16 13 -16 12 -1 -17
9 -18 12 -36 7 -44 -4 -7 -6 -20 -3 -29 4 -14 3 -14 -6 -1 -9 13 -12 13 -20 1
-5 -7 -13 -11 -19 -7 -9 5 -22 -14 -22 -33 0 -5 14 -24 30 -42 25 -28 32 -32
40 -19 5 8 8 21 5 28 -5 15 20 99 36 118 12 14 19 76 21 192 2 75 5 92 18 92
10 0 11 3 4 8 -14 8 -17 38 -14 152 1 72 3 81 12 56 7 -19 7 -48 1 -88 -8 -46
-7 -58 3 -54 7 3 23 -4 35 -15 l23 -20 -22 -15 c-12 -8 -22 -21 -22 -29 0 -20
50 -76 62 -69 6 4 5 10 -3 15 -10 6 -10 9 -2 9 15 0 25 -15 39 -60 7 -19 12
-28 13 -19 1 9 7 29 15 43 10 19 15 23 19 13 3 -8 1 -19 -5 -25 -6 -6 -7 -18
-3 -29 5 -10 8 -21 7 -25 -1 -3 16 -9 37 -13 23 -4 41 -13 45 -23 3 -9 11 -25
18 -34 10 -14 10 -20 0 -30 -6 -6 -15 -8 -19 -4 -4 4 -1 11 7 16 13 8 13 11
-1 25 -14 14 -17 14 -34 -5 -16 -18 -16 -20 -2 -20 26 0 21 -14 -18 -53 -39
-39 -49 -75 -16 -57 11 5 21 14 23 19 1 6 22 20 44 33 23 13 74 44 113 71 39
26 80 47 91 47 11 0 20 4 20 9 0 12 20 18 80 26 25 4 51 12 58 19 16 16 62 9
69 -11 3 -8 0 -19 -7 -23 -11 -7 -11 -11 -1 -24 8 -9 21 -16 31 -16 10 0 24
-10 32 -22 l15 -22 26 28 c27 29 29 35 31 92 1 17 7 38 15 47 28 34 43 219 37
452 -9 372 -33 598 -67 615 -12 7 -52 -2 -141 -34 -67 -23 -137 -50 -155 -59
-18 -10 -37 -17 -43 -17 -15 0 -186 -97 -237 -134 -23 -17 -61 -42 -84 -56
-23 -14 -59 -38 -80 -55 -22 -16 -52 -40 -68 -53 -16 -12 -32 -19 -34 -15 -3
5 -8 37 -12 72 -10 83 -87 311 -151 446 -13 28 -41 93 -63 145 -21 52 -56 127
-78 165 -38 66 -42 70 -79 72 -22 2 -52 -5 -69 -14z m-786 -1069 c1 -48 -3
-65 -12 -62 -16 6 -21 67 -8 101 6 15 12 27 15 27 2 0 4 -30 5 -66z m1081 -29
c-7 -8 -16 -12 -21 -9 -13 8 -1 24 18 24 13 0 13 -3 3 -15z m-591 -50 c0 -5
-4 -3 -9 5 -5 8 -9 22 -9 30 0 16 17 -16 18 -35z m551 15 c0 -13 -7 -20 -20
-20 -19 0 -27 20 -13 33 13 14 33 6 33 -13z m-620 -27 c0 -7 7 -25 16 -38 9
-13 13 -29 9 -35 -10 -16 -25 -1 -25 25 0 13 -4 26 -9 29 -5 3 -11 17 -13 31
-4 20 -3 23 8 14 8 -6 14 -18 14 -26z m37 21 c-3 -3 -12 -4 -19 -1 -8 3 -5 6
6 6 11 1 17 -2 13 -5z m-463 -29 c3 -9 0 -15 -9 -15 -9 0 -12 6 -9 15 4 8 7
15 9 15 2 0 5 -7 9 -15z m483 -32 c-3 -10 -5 -4 -5 12 0 17 2 24 5 18 2 -7 2
-21 0 -30z m-534 -74 c-3 -10 -9 -19 -14 -19 -5 0 -9 -8 -9 -17 0 -14 -2 -15
-12 -4 -10 11 -10 14 0 18 6 3 12 15 12 29 0 16 4 22 14 18 8 -3 12 -13 9 -25z
m1187 -9 c0 -13 -5 -18 -15 -14 -12 5 -13 10 -4 20 15 19 19 18 19 -6z m-1079
-91 c6 -3 4 -11 -4 -18 -11 -9 -17 -8 -27 4 -9 10 -9 15 -1 15 6 0 12 19 13
43 l1 42 4 -40 c3 -22 9 -42 14 -46z m662 21 c3 -13 0 -20 -9 -20 -8 0 -14 9
-14 20 0 11 4 20 9 20 5 0 11 -9 14 -20z m-222 -20 c5 0 9 -18 9 -39 0 -22 5
-43 10 -46 16 -10 12 -21 -14 -33 -28 -13 -30 -10 -41 71 -4 30 -3 47 4 47 6
0 12 8 12 18 1 16 2 16 6 0 2 -10 9 -18 14 -18z m924 -30 c-3 -4 -15 -6 -27
-2 -21 5 -21 6 -2 12 21 8 37 3 29 -10z m-1545 -223 c-5 -17 -10 -39 -9 -51 1
-18 2 -18 8 4 5 17 9 -4 14 -66 4 -51 2 -105 -3 -125 -6 -18 -7 -42 -4 -51 3
-10 1 -18 -4 -18 -16 0 -27 167 -13 184 10 12 9 20 -4 40 -14 21 -16 39 -11
89 4 34 9 86 11 116 9 114 20 120 23 12 1 -58 -2 -118 -8 -134z m820 200 c0
-19 -30 -57 -44 -57 -15 0 -11 33 5 54 25 32 39 33 39 3z m558 -2 c-1 -14 -6
-25 -10 -25 -4 0 -8 11 -8 25 0 14 4 25 10 25 5 0 9 -11 8 -25z m139 -21 c-3
-3 -12 -4 -19 -1 -8 3 -5 6 6 6 11 1 17 -2 13 -5z m-787 -8 c0 -3 -4 -8 -10
-11 -5 -3 -10 -1 -10 4 0 6 5 11 10 11 6 0 10 -2 10 -4z m-540 -57 c0 -12 -42
-53 -58 -57 -14 -3 -39 45 -28 55 4 4 11 2 15 -6 10 -16 23 -13 39 11 13 18
32 16 32 -3z m434 -147 c-7 -206 -8 -227 -19 -227 -6 0 -9 11 -7 25 2 14 3 98
4 187 1 130 4 161 14 152 9 -7 11 -43 8 -137z m1006 138 c0 -5 -5 -10 -11 -10
-5 0 -7 5 -4 10 3 6 8 10 11 10 2 0 4 -4 4 -10z m-290 -21 c0 -6 -4 -7 -10 -4
-5 3 -10 11 -10 16 0 6 5 7 10 4 6 -3 10 -11 10 -16z m324 -45 c22 -9 20 -24
-3 -24 -21 0 -34 13 -24 24 8 7 8 7 27 0z m-1570 -96 c5 -21 3 -28 -9 -28 -11
0 -15 11 -15 37 0 41 13 35 24 -9z m-47 -65 c-3 -10 -5 -2 -5 17 0 19 2 27 5
18 2 -10 2 -26 0 -35z m0 -105 c-2 -18 -4 -6 -4 27 0 33 2 48 4 33 2 -15 2
-42 0 -60z m552 -149 c-7 -41 -17 -92 -22 -114 -6 -22 -10 -53 -9 -70 1 -16
-1 -24 -5 -16 -3 9 -13 -4 -24 -34 -12 -33 -15 -53 -9 -60 6 -7 7 -25 4 -41
-4 -24 -11 -29 -35 -30 -26 -1 -29 2 -23 20 4 12 11 24 17 28 6 3 10 25 9 48
-1 23 5 51 13 63 8 12 15 31 15 42 0 11 7 40 16 65 9 25 20 74 25 109 10 71
17 87 30 74 6 -6 5 -39 -2 -84z m-540 10 c-12 -8 -12 -10 0 -18 13 -8 13 -12
1 -26 -21 -26 -31 3 -18 55 11 41 12 42 22 21 7 -17 6 -25 -5 -32z m501 -273
c0 -8 -4 -18 -10 -21 -5 -3 -10 3 -10 14 0 12 5 21 10 21 6 0 10 -6 10 -14z
m1448 -212 c1 -50 -1 -100 -5 -111 -13 -35 -333 -373 -333 -352 0 29 232 481
266 519 56 62 68 53 72 -56z m-1503 76 c3 -5 -1 -10 -10 -10 -9 0 -13 5 -10
10 3 6 8 10 10 10 2 0 7 -4 10 -10z m-85 -90 c0 -5 -5 -10 -11 -10 -5 0 -7 5
-4 10 3 6 8 10 11 10 2 0 4 -4 4 -10z m465 -70 c3 -5 -1 -10 -10 -10 -9 0 -13
5 -10 10 3 6 8 10 10 10 2 0 7 -4 10 -10z m-142 -25 c7 -16 -8 -29 -23 -20
-15 9 -12 35 4 35 8 0 16 -7 19 -15z m-1970 -150 c-3 -9 -8 -14 -10 -11 -3 3
-2 9 2 15 9 16 15 13 8 -4z m217 -162 c14 -9 27 -20 30 -24 3 -3 44 -25 93
-48 48 -23 87 -45 87 -49 0 -4 19 -7 42 -7 49 0 62 -21 31 -52 -10 -10 -25
-37 -32 -61 -15 -45 -36 -55 -46 -22 -4 11 -11 18 -16 15 -5 -4 -9 -1 -9 6 0
6 -26 37 -57 68 -32 31 -69 70 -83 87 -14 16 -37 38 -52 47 -16 10 -28 26 -28
37 0 24 8 25 40 3z m-1253 -145 c-3 -8 -6 -5 -6 6 -1 11 2 17 5 13 3 -3 4 -12
1 -19z m337 -6 c2 -4 -7 -12 -20 -19 -27 -12 -30 -9 -11 12 14 16 24 18 31 7z
m3247 -98 c34 -35 34 -36 33 -120 -1 -75 -5 -93 -35 -152 -56 -110 -119 -162
-197 -162 -37 0 -50 6 -79 35 -34 34 -35 37 -31 99 5 75 32 133 107 229 89
113 143 132 202 71z m1247 12 c55 -28 92 -97 92 -170 0 -23 -4 -26 -32 -26
-58 1 -111 32 -138 83 -28 53 -21 93 20 114 31 16 26 16 58 -1z m-4458 -81 c0
-9 -42 -85 -50 -90 -20 -13 -16 26 6 46 13 12 24 28 24 36 0 7 5 13 10 13 6 0
10 -2 10 -5z m336 -101 c-11 -44 -26 -74 -35 -74 -5 0 -13 -20 -17 -45 -6 -42
-25 -75 -43 -75 -4 0 -7 -16 -8 -36 -1 -20 -7 -40 -13 -44 -8 -5 -10 -18 -6
-33 3 -14 2 -36 -3 -49 -8 -21 -9 -20 -17 17 -4 22 -7 48 -6 57 0 10 -5 15
-13 12 -7 -3 -16 0 -20 6 -5 8 -14 5 -31 -11 -23 -22 -54 -20 -54 3 0 7 13 22
29 33 17 11 32 26 36 35 12 33 37 70 46 70 5 0 9 6 9 13 0 15 62 104 93 133
29 27 61 20 53 -12z m-397 -79 c-17 -52 -31 -64 -37 -30 -2 11 -8 25 -13 31
-5 6 -5 24 0 42 15 52 21 56 45 31 21 -23 21 -24 5 -74z m4422 16 c24 -11 70
-24 102 -31 34 -7 57 -17 57 -24 0 -23 -42 -109 -82 -168 -51 -76 -169 -178
-206 -178 -16 0 -33 5 -40 12 -14 14 -16 70 -3 83 5 6 27 62 49 125 42 122 72
200 77 200 1 0 22 -9 46 -19z m-3683 -5 c15 -8 39 -17 55 -21 15 -3 27 -12 27
-20 0 -20 20 -19 36 3 9 11 16 13 21 7 5 -6 27 -10 51 -10 23 1 42 -1 42 -5 0
-4 -17 -19 -39 -34 -21 -15 -43 -38 -49 -51 -12 -26 -27 -32 -37 -16 -3 5 5
17 17 25 21 15 21 17 6 33 -21 21 -42 6 -59 -41 -11 -30 -26 -41 -81 -60 -10
-3 -18 -12 -18 -20 0 -8 -6 -16 -12 -18 -7 -3 -3 -7 8 -10 18 -4 21 -2 17 16
-4 17 -3 18 6 5 14 -22 3 -57 -22 -65 -13 -4 -23 -1 -29 10 -14 25 -41 0 -34
-30 5 -17 1 -23 -20 -28 -15 -4 -39 -4 -54 -1 -22 5 -29 13 -35 42 -4 21 -2
40 4 46 8 8 11 6 11 -5 0 -21 43 -49 60 -38 11 7 11 11 1 24 -7 8 -11 19 -8
23 3 4 -1 14 -9 21 -8 7 -14 8 -14 2 0 -5 -7 -10 -15 -10 -12 0 -10 10 10 50
14 28 29 49 34 46 4 -3 13 11 20 30 7 18 17 34 22 34 5 0 9 6 9 14 0 13 37 66
47 66 3 0 17 -6 31 -14z m-798 -72 c13 -38 7 -56 -15 -47 -11 4 -13 1 -9 -11
5 -13 -1 -16 -35 -16 -48 0 -55 19 -17 44 13 8 27 29 31 45 8 38 30 31 45 -15z
m74 -125 c-6 -11 -24 -2 -24 11 0 5 7 7 15 4 8 -4 12 -10 9 -15z"/>
<path d="M5023 4113 c-15 -5 -17 -23 -4 -23 5 0 11 7 15 15 3 8 4 15 3 14 -1
0 -8 -3 -14 -6z"/>
<path d="M3196 2901 c-4 -7 -5 -15 -2 -18 9 -9 19 4 14 18 -4 11 -6 11 -12 0z"/>
<path d="M3240 2895 c0 -8 6 -15 13 -15 8 0 14 7 14 15 0 8 -6 15 -14 15 -7 0
-13 -7 -13 -15z"/>
<path d="M3288 2903 c7 -3 16 -2 19 1 4 3 -2 6 -13 5 -11 0 -14 -3 -6 -6z"/>
<path d="M3180 2835 c0 -8 5 -15 10 -15 6 0 10 7 10 15 0 8 -4 15 -10 15 -5 0
-10 -7 -10 -15z"/>
<path d="M5602 5160 c0 -14 2 -19 5 -12 2 6 2 18 0 25 -3 6 -5 1 -5 -13z"/>
<path d="M5670 5160 c0 -5 5 -10 10 -10 6 0 10 5 10 10 0 6 -4 10 -10 10 -5 0
-10 -4 -10 -10z"/>
<path d="M5660 5110 c0 -5 7 -10 15 -10 8 0 15 5 15 10 0 6 -7 10 -15 10 -8 0
-15 -4 -15 -10z"/>
<path d="M5746 5061 c-4 -7 -5 -15 -2 -18 9 -9 19 4 14 18 -4 11 -6 11 -12 0z"/>
<path d="M5673 5005 c0 -27 2 -38 4 -22 2 15 2 37 0 50 -2 12 -4 0 -4 -28z"/>
<path d="M5740 4895 c0 -8 5 -15 10 -15 6 0 10 7 10 15 0 8 -4 15 -10 15 -5 0
-10 -7 -10 -15z"/>
<path d="M5498 4823 c7 -3 16 -2 19 1 4 3 -2 6 -13 5 -11 0 -14 -3 -6 -6z"/>
<path d="M5780 4820 c0 -5 5 -10 10 -10 6 0 10 5 10 10 0 6 -4 10 -10 10 -5 0
-10 -4 -10 -10z"/>
<path d="M5985 4811 c-3 -5 -1 -12 5 -16 5 -3 10 1 10 9 0 18 -6 21 -15 7z"/>
<path d="M5682 4710 c0 -19 2 -27 5 -17 2 9 2 25 0 35 -3 9 -5 1 -5 -18z"/>
<path d="M5725 4720 c-4 -6 -3 -16 3 -22 6 -6 12 -6 17 2 4 6 3 16 -3 22 -6 6
-12 6 -17 -2z"/>
<path d="M5675 4627 c-8 -30 0 -47 14 -31 4 5 5 20 1 34 l-7 25 -8 -28z"/>
<path d="M5729 4648 c-9 -29 -7 -58 4 -58 9 0 12 9 9 30 -4 25 -9 38 -13 28z"/>
<path d="M6001 4554 c0 -11 3 -14 6 -6 3 7 2 16 -1 19 -3 4 -6 -2 -5 -13z"/>
<path d="M5780 4540 c-7 -12 -8 -39 -5 -64 5 -28 2 -52 -6 -67 -11 -22 -11
-23 4 -10 9 7 21 30 27 50 20 73 6 139 -20 91z"/>
<path d="M5677 4526 c-7 -19 -2 -22 46 -31 37 -7 39 -6 35 16 -2 20 -10 25
-39 27 -25 2 -38 -2 -42 -12z"/>
<path d="M5668 4459 c-22 -12 -23 -29 -3 -29 8 0 15 4 15 9 0 4 12 7 26 5 31
-3 54 4 54 17 0 12 -71 11 -92 -2z"/>
<path d="M5506 4438 c-22 -31 -20 -40 9 -36 14 2 25 7 24 12 0 5 5 12 11 16
15 9 4 30 -15 30 -8 0 -21 -10 -29 -22z"/>
<path d="M5720 4390 c0 -40 -7 -46 -47 -41 -16 2 -16 1 2 -74 9 -38 13 -46 10
-21 -4 36 -3 37 11 20 13 -18 14 -16 8 17 -3 22 -1 39 5 43 7 4 11 -1 11 -13
0 -31 14 -26 27 9 14 38 6 100 -13 100 -10 0 -14 -13 -14 -40z"/>
<path d="M5841 4384 c0 -11 3 -14 6 -6 3 7 2 16 -1 19 -3 4 -6 -2 -5 -13z"/>
<path d="M5682 4370 c0 -14 2 -19 5 -12 2 6 2 18 0 25 -3 6 -5 1 -5 -13z"/>
<path d="M5547 4273 c-9 -19 -8 -83 2 -83 6 0 11 10 11 23 0 12 3 32 6 45 6
20 -10 32 -19 15z"/>
<path d="M5600 4261 c0 -8 7 -19 16 -26 13 -9 14 -16 7 -31 -22 -41 9 -59 40
-23 14 16 16 24 6 35 -6 8 -16 14 -21 14 -5 0 -18 10 -29 23 -12 14 -18 17
-19 8z"/>
<path d="M5424 4229 c-3 -6 -1 -16 5 -22 8 -8 11 -5 11 11 0 24 -5 28 -16 11z"/>
<path d="M5300 4086 c0 -31 5 -56 10 -56 6 0 10 22 10 49 0 28 -4 53 -10 56
-6 4 -10 -15 -10 -49z"/>
<path d="M5600 4110 c0 -5 -14 -10 -31 -10 -23 0 -30 -4 -25 -15 3 -8 -2 -21
-10 -30 -14 -13 -13 -15 4 -15 10 0 31 14 46 32 24 30 32 48 21 48 -3 0 -5 -4
-5 -10z"/>
<path d="M5360 4048 l1 -43 14 34 c19 42 19 51 0 51 -11 0 -15 -11 -15 -42z"/>
<path d="M5518 4016 c-24 -18 -22 -28 4 -24 13 2 24 11 26 21 4 20 -6 21 -30
3z"/>
<path d="M5141 3924 c0 -11 3 -14 6 -6 3 7 2 16 -1 19 -3 4 -6 -2 -5 -13z"/>
<path d="M5240 3701 c0 -5 6 -11 13 -14 8 -3 14 1 14 9 0 8 -6 14 -14 14 -7 0
-13 -4 -13 -9z"/>
<path d="M4350 2426 c0 -22 -16 -122 -55 -336 -8 -47 -15 -98 -14 -115 0 -26
3 -23 18 21 22 66 53 108 93 127 69 34 123 -47 89 -135 -5 -13 -24 -38 -42
-55 -51 -50 -149 -62 -149 -18 0 8 -4 15 -10 15 -5 0 -10 -16 -10 -35 l0 -35
48 0 c99 0 132 21 181 117 32 64 26 119 -17 163 -25 24 -96 19 -126 -9 -31
-29 -32 -23 -12 76 20 99 30 243 17 243 -6 0 -11 -11 -11 -24z"/>
<path d="M5216 2408 c-4 -13 -9 -106 -11 -208 -3 -102 -7 -227 -10 -277 -4
-83 2 -111 19 -85 7 11 20 592 14 592 -3 0 -9 -10 -12 -22z"/>
<path d="M3327 2403 c-3 -5 -10 -61 -18 -125 -11 -105 -15 -118 -32 -118 -10
0 -31 -7 -46 -16 -89 -52 -121 -248 -46 -282 37 -17 76 -14 104 7 20 15 23 23
16 47 -7 27 -8 28 -15 8 -10 -26 -48 -54 -72 -54 -23 0 -49 40 -55 88 -7 55
28 134 71 157 55 30 66 17 66 -71 0 -43 2 -75 4 -73 3 3 12 85 21 184 8 99 18
197 21 218 4 22 2 37 -5 37 -5 0 -12 -3 -14 -7z"/>
<path d="M3533 2200 c-39 -23 -55 -52 -51 -88 4 -27 4 -26 20 10 21 47 78 79
103 58 36 -30 15 -75 -59 -124 -79 -53 -99 -81 -93 -135 3 -24 11 -47 18 -52
22 -13 93 -11 114 5 10 7 27 11 37 8 20 -5 24 8 8 24 -7 7 -5 46 6 118 20 135
15 170 -28 185 -40 14 -37 14 -75 -9z m81 -187 c-3 -27 -10 -62 -15 -80 -17
-56 -88 -83 -122 -45 -13 15 -14 22 -2 56 15 44 35 65 85 94 54 32 60 29 54
-25z"/>
<path d="M4785 2173 c-41 -42 -63 -106 -71 -208 -5 -62 -4 -72 15 -92 50 -52
159 -7 176 72 5 27 4 28 -7 12 -53 -76 -115 -99 -153 -57 -16 18 -17 25 -5 80
l13 60 73 0 c99 0 104 3 104 59 0 109 -74 147 -145 74z m109 -9 c9 -8 16 -30
16 -49 0 -38 -15 -45 -92 -45 -54 0 -59 10 -33 60 25 49 78 66 109 34z"/>
<path d="M5564 2180 c-33 -13 -60 -58 -84 -139 -29 -97 -22 -151 25 -198 28
-28 39 -33 62 -27 35 8 43 13 43 24 0 5 -9 6 -22 1 -26 -9 -64 -3 -78 14 -5 6
-13 39 -16 71 -8 75 0 82 95 93 39 4 73 9 75 12 3 3 6 31 7 64 2 50 -1 61 -21
77 -24 19 -52 22 -86 8z m70 -23 c22 -16 26 -84 6 -98 -21 -13 -130 -11 -130
2 0 6 13 30 30 54 39 56 61 66 94 42z"/>
<path d="M6394 2166 c-38 -17 -74 -54 -74 -75 1 -14 2 -14 13 -1 29 37 78 62
112 58 39 -4 46 6 16 22 -25 13 -29 12 -67 -4z"/>
<path d="M5933 2153 c-25 -3 -33 -9 -33 -25 0 -15 4 -18 18 -13 9 4 41 10 69
13 l53 4 -84 -154 c-47 -85 -86 -163 -88 -174 -3 -17 5 -19 79 -22 77 -3 134
10 118 26 -3 3 -42 5 -85 3 -67 -2 -80 0 -80 13 0 21 78 161 135 242 60 87 59
94 -12 92 -32 0 -73 -3 -90 -5z"/>
<path d="M6489 2128 c-6 -24 -5 -58 2 -58 5 0 9 14 9 30 0 17 -2 30 -5 30 -3
0 -5 -1 -6 -2z"/>
<path d="M6410 2020 c-85 -33 -87 -34 -121 -88 -35 -56 -38 -108 -8 -147 19
-24 26 -26 63 -21 23 4 51 8 62 9 14 1 20 7 16 17 -10 29 -14 31 -30 17 -24
-20 -59 -30 -87 -23 -29 7 -37 46 -20 103 17 57 92 122 143 123 18 0 22 -6 23
-32 l0 -33 15 40 c8 22 13 44 12 50 -2 7 -28 1 -68 -15z"/>
<path d="M6430 1909 c0 -5 5 -7 10 -4 6 3 10 8 10 11 0 2 -4 4 -10 4 -5 0 -10
-5 -10 -11z"/>
</g>
</svg>
